<svg width="402" height="288" viewBox="0 0 402 288" fill="none" xmlns="http://www.w3.org/2000/svg">
<path d="M125.082 274.263H257.65L256.184 131.004L249.713 110.75L248.654 57.892L241.599 25.288L236.634 1.66299L187.467 0L169.208 4.42599L149.29 30.984L153.601 88.52L148.335 138.907L139.252 196.211L129.697 254.503L125.082 274.263Z" fill="#897479"/>
<path d="M189.403 77.4603L200.067 3.94531L185.807 50.0733L172.252 62.2453L157.313 56.4353L163.676 64.1813L187.19 138.875L203.904 164.266L189.403 77.4603Z" fill="#6D545B"/>
<path d="M220.111 270.004L278.206 274.263L272.256 183.828L266.708 164.054L261.077 98.2931L250.279 42.0801L236.634 1.66309L200.067 3.9451L187.467 51.4561L176.401 65.8411L193.276 141.088L207.804 173.168L213.833 229.328L219.188 261.063L220.111 270.004Z" fill="#A58B90"/>
<path d="M221.895 164.479L233.773 189.072L249.382 176.485L264.666 189.656L267.363 167.957L266.074 163.384L260.484 99.4565L249.971 45.3256L236.806 6.68555L201.573 8.81354L202.363 62.4095L199.141 99.5446L204.865 110.037L221.895 164.479Z" fill="#AF959B"/>
<path d="M241.587 236.863L235.832 220.816L236.582 202.387L235.338 194.337L250.573 176.912L257.412 186.326L259.514 213.395L258.76 234.373L251.198 236.592L245.617 233.546L241.587 236.863Z" fill="#AF959B"/>
<path d="M278.206 274.263L273.706 205.868L269.252 219.033L260.449 240.306L257.071 255.231L240.456 255.053L232.669 245.87L224.019 224.002L213.035 183.536L203.904 164.266L195.946 135.585L195.907 136.81L206.583 187.461L213.833 229.328L219.188 261.063L220.111 270.004L278.206 274.263Z" fill="#9B8086"/>
<path d="M237.265 250.247L232.49 246.942L228.202 238.322L227.969 256.938L228.72 270.635L244.002 271.756L240.613 256.532L237.265 250.247Z" fill="#A58B90"/>
<path d="M226.487 233.455L226.308 249.117L221.618 241.763L217.221 235.742L215.116 234.075L211.529 212.754L211.301 198.414L205.521 166.684L212.652 184.306L216.468 200.429L220.404 214.828L225.062 222.137L226.487 233.455Z" fill="#A58B90"/>
<path d="M58.4281 274.263H222.688L186.874 137.057L173.423 116.713L158.444 62.4463L140.427 28.0973L79.5831 3.86328L72.9801 9.07129L66.4421 38.5783L49.3001 74.2573L42.0391 94.1003L49.8461 144.93L54.5261 200.926L58.7371 256.006L58.4281 274.263Z" fill="#897479"/>
<path d="M112.59 274.263H242.893L204.914 150.091L191.122 129.086L171.632 69.1221L149.842 27.9012L128.626 2.49316L79.5833 3.86316L79.3013 40.7682L70.2923 82.6891L67.6343 104.821L84.5593 158.02L98.2473 211.419L110.206 259.304L112.59 274.263Z" fill="#A58B90"/>
<path d="M112.637 131.6L135.591 158.283L162.701 143.175L192.473 157.139L192.997 133.126L189.904 128.421L170.875 70.0783L149.684 30.0902L129.092 5.49023L81.501 6.81525L81.16 42.5612L74.875 71.4933L83.7209 80.2323L112.637 131.6Z" fill="#AF959B"/>
<path d="M156.006 219.676L142.438 197.849L142.065 174.079L138.962 164.395L164.891 143.582L178.675 153.743L187.616 186.307L190.52 214.571L175.639 218.406L163.759 214.571L156.006 219.676Z" fill="#AF959B"/>
<path d="M242.893 274.263L212.796 175.862L207.63 192.873L195.28 222.905L191.718 245.708L156.203 247.22L138.466 233.845L118.961 203.134L96.7453 153.082L80.3773 132.223L67.7753 103.65L67.6343 104.821L84.5593 158.02L98.2473 211.419L110.206 259.304L112.59 274.263H242.893Z" fill="#9B8086"/>
<path d="M148.72 240.064L138.193 235.49L128.427 223.044L129.342 251.595L132.16 274.263H166.674L156.757 249.545L148.72 240.064Z" fill="#A58B90"/>
<path d="M124.536 216.159L125.176 239.462L114.786 228.766L105.353 220.31L100.931 218.088L93.6532 189.052L93.3542 170.876L83.2202 134.734L96.0272 153.991L103.332 173.014L111.346 191.099L120.973 200.503L124.536 216.159Z" fill="#A58B90"/>
<path d="M389.986 220.512L386.647 215.097L362.672 206.251L338.671 204.086L332.56 209.124L321.27 258.38L323.635 261.64L369.703 274.268L373.868 273.3L389.986 220.512Z" fill="#AD9097"/>
<path d="M389.986 220.512L386.647 215.097L359.664 214.745L338.671 204.086L332.56 209.124L321.27 258.38L323.635 261.64L369.33 273.574L373.868 273.3L389.986 220.512Z" fill="#9B7C82"/>
<path d="M389.986 220.511L386.647 215.096L385.664 214.733L351.353 230.887L345.186 230.054L329.658 221.784L321.27 258.379L323.635 261.639L366.548 271.365L373.868 273.299L389.986 220.511Z" fill="#896A6F"/>
<path d="M389.986 220.512L388.07 217.404L375.708 257.89L345.664 248.706L340.435 250.364L324.396 244.742L321.27 258.38L323.635 261.64L342.953 267.15L373.868 273.3L389.986 220.512Z" fill="#75545B"/>
<path d="M401.563 223.333L399.585 218.079L362.672 206.251L356.909 211.301L341.197 263.751L342.953 267.15L380.752 278.565L384.178 276.121L401.563 223.333Z" fill="#A58B90"/>
<path d="M382.043 234.789L396.297 228.426L400.808 221.329L399.585 218.079L382.823 212.708L382.043 234.789Z" fill="#AF9198"/>
<path d="M378.212 248.688L379 264.386L385.432 272.314L396.374 239.09L387.65 241.405L378.212 248.688Z" fill="#AF9198"/>
<path d="M342.507 266.286L355.67 262.509L369.323 246.126L369.744 229.683L362.709 206.263L362.672 206.251L356.909 211.301L341.197 263.751L342.507 266.286Z" fill="#AF9198"/>
<path d="M383.389 236.891L382.699 235.057L369.812 230.928L367.799 232.691L362.314 251.003L362.927 252.189L376.124 256.175L377.32 255.321L383.389 236.891Z" fill="#896A6F"/>
<path d="M382.314 240.155L383.389 236.891L382.699 235.057L369.812 230.928L367.799 232.691L365.637 239.911L382.314 240.155Z" fill="#6D5055"/>
<path d="M363.267 247.82L362.314 251.003L362.927 252.189L376.124 256.175L377.32 255.321L378.358 252.168L363.267 247.82Z" fill="#9B7C82"/>
<path d="M357.211 213.941L363.258 207.507L400.054 219.28L399.594 218.069L362.69 206.256L355.902 212.835L340.684 263.926L341.288 265.092L357.211 213.941Z" fill="#75545B"/>
<path d="M356.019 214.066L344.845 207.221L357.455 212.604L356.019 214.066Z" fill="#75545B"/>
<path d="M383.389 236.891L382.699 235.057L369.812 230.928L368.898 231.728L381.503 235.768L382.194 237.602L377.41 253.809L375.983 256.132L376.124 256.175L377.32 255.321L383.389 236.891Z" fill="#6D5055"/>
<path d="M400.345 276.747H0C0 276.747 81.956 287.951 210.491 287.951C339.026 287.951 400.345 276.747 400.345 276.747Z" fill="#BAA902"/>
<path d="M137.208 171.76L127.249 163.876L77.356 160.446L32.2209 168.856L24.752 180.89L39.691 273.842L46.33 278.407L139.056 277.265L145.922 273.427L137.208 171.76Z" fill="#AD9097"/>
<path d="M137.208 171.76L127.249 163.876L78.006 177.017L32.2209 168.856L24.752 180.89L39.691 273.842L46.33 278.407L137.881 276.228L145.922 273.427L137.208 171.76Z" fill="#9B7C82"/>
<path d="M137.208 171.76L127.249 163.876L125.202 163.735L74.5288 209.833L62.7328 211.502L28.5918 204.783L39.6908 273.842L46.3298 278.407L131.241 273.738L145.922 273.427L137.208 171.76Z" fill="#896A6F"/>
<path d="M137.208 171.76L131.492 167.236L138.176 245.209L77.0192 244.275L68.7202 249.877L35.5552 248.106L39.6912 273.842L46.3301 278.407L85.3682 278.308L145.922 273.427L137.208 171.76Z" fill="#75545B"/>
<path d="M160.256 170.848L152.884 162.557L77.3559 160.446L70.5249 172.325L79.7339 273.188L85.3679 278.308L162.209 279.236L166.67 273.162L160.256 170.848Z" fill="#A58B90"/>
<path d="M133.058 201.086L154.36 182.551L157.444 167.687L152.884 162.558L118.588 161.599L133.058 201.086Z" fill="#AF9198"/>
<path d="M136.101 227.643L148.827 255.031L166.208 265.786L162.17 201.389L147.997 209.938L136.101 227.643Z" fill="#AF9198"/>
<path d="M83.9349 277.007L105.117 263.606L118.119 227.642L107.053 198.318L77.4319 160.448L77.3559 160.446L70.5249 172.325L79.7339 273.188L83.9349 277.007Z" fill="#AF9198"/>
<path d="M137.014 204.12L134.441 201.225L108.072 200.488L105.687 204.635L108.902 239.849L110.869 241.637L137.697 241.961L139.254 239.84L137.014 204.12Z" fill="#896A6F"/>
<path d="M137.411 210.445L137.014 204.12L134.441 201.225L108.072 200.488L105.687 204.635L106.955 218.519L137.411 210.445Z" fill="#6D5055"/>
<path d="M108.343 233.729L108.902 239.849L110.869 241.637L137.697 241.961L139.254 239.84L138.871 233.729H108.343Z" fill="#9B7C82"/>
<path d="M72.9728 176.843L79.3238 162.371L154.601 164.443L152.894 162.534L77.3918 160.446L69.8018 175.554L78.9268 273.758L80.8638 275.516L72.9728 176.843Z" fill="#75545B"/>
<path d="M70.898 177.673L45.687 171.256L72.454 174.354L70.898 177.673Z" fill="#75545B"/>
<path d="M137.014 204.12L134.441 201.225L108.072 200.488L106.989 202.371L132.781 203.092L135.355 205.987L138.33 237.117L137.41 241.957L137.697 241.961L139.254 239.84L137.014 204.12Z" fill="#6D5055"/>
<g opacity="0.6">
<path d="M160.779 222.304L161.25 201.388L173.677 170.848L168.527 164.442L167.023 162.534L150.715 162.407L149 168.385L149.8 168.031C149.716 168.106 149.631 168.181 149.548 168.256C149.527 168.275 149.505 168.295 149.483 168.314C149.129 168.633 148.78 168.951 148.441 169.267C148.297 169.401 148.159 169.533 148.018 169.666C147.995 169.687 147.973 169.709 147.95 169.73C147.84 169.834 147.726 169.94 147.617 170.044C146.272 171.332 145.062 172.574 144.009 173.704C141.061 176.87 139.346 179.164 139.346 179.164L142.786 178.728C142.786 178.728 142.429 179.173 141.833 179.926C141.038 180.931 139.818 182.486 138.452 184.272C138.281 184.495 138.108 184.722 137.933 184.952C137.583 185.411 137.227 185.883 136.868 186.361C136.688 186.6 136.508 186.841 136.328 187.083C133.984 190.227 131.621 193.556 130.437 195.695C130.346 195.859 130.262 196.017 130.185 196.167L130.588 196.086L133.416 195.513C133.416 195.513 130.69 199.722 127.65 204.681C127.649 204.683 127.647 204.686 127.645 204.688C124.733 209.438 121.534 214.873 120.161 217.965L124.129 216.657C124.129 216.657 115.492 230.172 116.312 247.174L120.525 245.648C120.525 245.648 115 254.585 113.488 267.01L117.567 264.394L118.855 278.563H138.22H152.653H153.869H154.708H155.205L159.633 273.16L160.779 222.304Z" fill="#843131"/>
</g>
<path d="M304.866 173.632C307.245 174.82 310.106 176.55 310.668 177.586C311.23 178.622 313.727 183.585 313.009 184.532C312.291 185.479 310.506 186.847 309.026 186.128C307.545 185.409 306.308 181.322 305.631 180.697C304.955 180.072 301.068 178.404 301.068 178.404L304.866 173.632Z" fill="#FFB882"/>
<path d="M310.042 167.429C312.414 168.776 315.267 170.713 315.826 171.828C316.385 172.944 318.867 178.278 318.148 179.249C317.429 180.22 315.645 181.594 314.168 180.778C312.691 179.961 311.465 175.6 310.791 174.914C310.117 174.228 306.24 172.316 306.24 172.316L310.042 167.429Z" fill="#FFB882"/>
<path d="M285.978 159.896C294.029 158.276 306.347 156.983 308.873 157.899C311.398 158.816 320.723 164.935 321.513 166.308C322.303 167.681 324.569 175.342 323.556 177.229C322.542 179.116 319.751 179.066 318.576 178.021C317.401 176.977 316.995 171.183 316.167 170.611C315.338 170.039 312.49 167.959 311.822 168.145C311.154 168.331 306.658 179.23 303.681 179.466C300.704 179.701 291.423 174.057 286.492 175.191L285.978 159.896Z" fill="#FFB882"/>
<path d="M223.794 183.788C237.868 188.148 266.224 173.921 295.05 175.867C306.681 176.652 308.65 170.067 299.039 164.394C292.907 160.775 277.081 156.87 272.273 156.682C261.245 156.251 227.84 152.853 224.141 154.696C215.574 158.966 209.016 179.21 223.794 183.788Z" fill="#FFB882"/>
<path d="M292.533 166.718C258.059 160.414 217.343 146.516 217.029 162.984C213.575 170.603 213.882 180.718 223.795 183.788C237.869 188.148 266.225 173.921 295.051 175.867C303.013 176.405 306.444 173.487 304.736 169.774C303.062 170.963 296.882 167.513 292.533 166.718Z" fill="#FF9566"/>
<path d="M140.787 278.565H192.051L239.912 270.936L246.717 222.326L245.583 211.5L247.398 208.884L245.583 201.473H248.759L240.139 186.65H242.861C242.861 186.65 241.273 177.931 235.602 173.135L240.592 175.097C240.592 175.097 234.467 155.624 219.27 154.534C204.072 153.444 183.884 153.226 172.316 160.201C160.748 167.176 152.808 179.165 152.808 179.165L156.211 178.729C156.211 178.729 147.138 191.372 145.096 196.167L148.272 195.513C148.272 195.513 139.199 211.644 136.93 217.965L140.786 216.657C140.786 216.657 133.301 230.172 135.569 247.174L139.652 245.648C139.652 245.648 134.889 254.585 134.435 267.01L138.291 264.394L140.787 278.565Z" fill="#FFB640"/>
<path d="M245.583 201.473H248.759L240.139 186.65H242.861C242.861 186.65 241.273 177.931 235.602 173.135L240.592 175.097C240.592 175.097 234.468 155.624 219.27 154.534C204.072 153.444 183.884 153.226 172.316 160.201C160.748 167.176 152.808 179.165 152.808 179.165L156.211 178.729C156.211 178.729 147.138 191.372 145.096 196.167L145.492 196.086C160.048 170.039 218.193 212.711 187.532 278.564H192.05L239.911 270.935L246.716 222.325L245.582 211.499L247.397 208.883L245.583 201.473Z" fill="#FFAC33"/>
<g opacity="0.5">
<path d="M161.714 256.24C161.246 255.871 160.626 255.771 160.033 255.708C153.798 255.043 147.314 257.228 142.754 261.532C141.575 262.645 140.459 264.046 140.469 265.667C140.475 266.646 140.896 267.572 141.348 268.44C142.136 269.951 143.07 271.426 144.391 272.504C144.941 272.953 145.57 273.318 146.234 273.574L146.841 272.229L148.007 273.953C148.387 273.968 148.767 273.945 149.143 273.866C150.255 273.631 151.231 272.988 152.178 272.357C153.82 271.264 155.761 270.278 157.236 268.972C157.911 268.374 157.147 267.224 158.998 266.781C159.93 266.558 160.928 266.554 161.788 266.132C163.19 265.444 163.884 263.768 163.861 262.206C163.839 260.644 163.235 259.157 162.64 257.712C162.416 257.171 162.175 256.603 161.714 256.24Z" fill="#5E2A3A"/>
<path d="M137.156 235.639C137.379 235.984 137.95 235.718 138.023 236.584C138.06 237.019 137.993 237.47 138.125 237.887C138.34 238.567 139.048 238.994 139.754 239.091C140.46 239.187 141.172 239.017 141.864 238.847C142.124 238.783 142.396 238.713 142.592 238.53C142.79 238.344 142.878 238.071 142.947 237.809C143.674 235.042 143.132 231.968 141.502 229.617C141.081 229.009 140.525 228.41 139.793 228.303C139.351 228.239 138.905 228.365 138.482 228.51C137.747 228.762 137.017 229.083 136.441 229.604C136.383 229.657 136.336 229.721 136.281 229.778C136.09 230.699 135.914 231.655 135.762 232.647C135.829 232.808 135.9 232.968 135.974 233.126C136.356 233.941 136.667 234.884 137.156 235.639Z" fill="#5E2A3A"/>
<path d="M171.637 230.595C170.916 231.714 170.891 233.136 171.002 234.463C171.139 236.106 171.76 238.075 173.378 238.399C174.263 238.576 175.182 238.154 175.826 237.522C176.026 237.326 176.2 237.108 176.363 236.881C177.556 236.15 178.436 234.9 178.592 233.509C178.785 231.789 177.808 229.971 176.222 229.275C174.637 228.579 172.573 229.139 171.637 230.595Z" fill="#5E2A3A"/>
<path d="M141.518 214.142L141.436 213.83C141.835 214.081 142.293 214.211 142.712 214.029C143.241 213.798 143.464 213.18 143.616 212.623C144.449 209.55 144.787 206.344 144.612 203.165C144.599 202.938 144.566 202.701 144.441 202.515C142.943 205.311 141.242 208.561 139.792 211.524C140.019 212.205 140.38 212.839 140.877 213.36C141.062 213.641 141.267 213.907 141.518 214.142Z" fill="#5E2A3A"/>
<path d="M168.852 219.752C169.564 218.832 170.277 217.912 170.989 216.992C171.287 216.607 171.587 216.219 171.791 215.778C172.179 214.94 172.192 213.981 172.149 213.059C171.914 208.06 170.198 203.14 167.274 199.079C166.754 198.357 166.147 197.625 165.299 197.352C164.449 197.078 163.524 197.321 162.684 197.624C158.322 199.197 154.595 202.46 152.459 206.576C150.324 210.692 149.802 215.618 151.028 220.09C151.381 221.375 151.881 222.64 152.692 223.698C154.683 226.295 158.4 227.232 161.55 226.346C164.699 225.46 167.248 222.981 168.715 220.056C168.765 219.956 168.805 219.853 168.852 219.752Z" fill="#5E2A3A"/>
<path d="M210.665 220.936C211.588 221.08 212.529 220.96 213.455 220.841C215.729 220.547 218.051 220.24 220.108 219.226C222.165 218.212 223.945 216.345 224.229 214.07L224.463 213.237C224.53 211.965 224.401 210.665 223.923 209.484C223.101 207.453 221.28 205.923 219.228 205.152C217.176 204.382 214.914 204.313 212.744 204.622C210.459 204.947 208.232 205.682 206.202 206.781C204.977 207.445 203.768 208.303 203.192 209.572C202.122 211.928 203.596 214.617 205.14 216.693C206.564 218.606 208.31 220.57 210.665 220.936Z" fill="#5E2A3A"/>
<path d="M213.194 239.592C209.482 242.418 208.912 247.789 209.483 252.419C209.669 253.925 210.124 255.661 211.527 256.238C212.285 256.55 213.146 256.432 213.948 256.259C216.798 255.645 219.509 254.396 221.827 252.628L218.244 255.278C220.161 255.882 222.275 254.982 223.75 253.617C227.025 250.588 227.701 245.056 225.066 241.456C222.431 237.857 216.743 236.89 213.194 239.592Z" fill="#5E2A3A"/>
<path d="M176.571 243.316C174.716 242.225 172.179 242.279 170.519 243.649C169.333 244.629 168.687 246.152 168.517 247.68C168.425 248.5 168.464 249.324 168.572 250.143L172.873 257.024L177.784 251.786L179.843 249.59C179.848 249.27 179.84 248.95 179.807 248.63C179.586 246.489 178.426 244.406 176.571 243.316Z" fill="#5E2A3A"/>
<path d="M174.361 276.182C173.391 275.717 168.642 272.07 160.153 278.565H176.641C176.285 277.501 175.38 276.671 174.361 276.182Z" fill="#5E2A3A"/>
<path d="M135.41 258.923L138.264 256.52C138.446 255.806 138.545 255.069 138.535 254.312C138.525 253.574 138.411 252.821 138.055 252.174C137.872 251.841 137.618 251.566 137.337 251.316C136.632 253.406 135.904 255.999 135.345 258.978L135.41 258.923Z" fill="#5E2A3A"/>
<path d="M231.527 213.942C232.076 214.05 233.829 214.733 236.31 214.185C236.529 208.754 236.498 203.188 235.811 199.534C235.666 199.603 235.521 199.67 235.379 199.742C231.472 201.728 228.057 205.5 228.12 209.882C228.131 210.62 228.245 211.373 228.602 212.019C229.183 213.076 230.344 213.711 231.527 213.942Z" fill="#5E2A3A"/>
<path d="M236.745 198.18L237.952 199.534L239.393 201.151C239.308 199.868 239.243 198.578 239.187 197.287C238.35 197.508 237.533 197.815 236.745 198.18Z" fill="#5E2A3A"/>
<path d="M196.926 189.688L195.634 190.217C196.207 189.061 196.449 187.727 196.641 186.435C197.02 183.889 197.258 181.148 196.058 178.871C194.273 175.484 189.844 174.316 186.06 174.9C180.661 175.733 175.824 179.557 173.766 184.617C173.186 186.044 172.823 187.693 173.445 189.103C173.788 189.881 174.4 190.508 175.043 191.063C178.107 193.707 182.225 195.093 186.264 194.839C190.305 194.585 194.217 192.695 196.926 189.688Z" fill="#5E2A3A"/>
<path d="M199.272 241.869C196.973 240.77 194.374 240.306 191.837 240.541C190.532 240.662 189.09 241.075 188.463 242.226C187.985 243.103 188.114 244.173 188.265 245.161C188.476 246.539 188.74 247.993 189.665 249.036C190.522 250.002 191.816 250.455 193.082 250.711C194.647 251.027 199.762 251.808 200.948 250.596C201.405 250.129 201.611 249.477 201.785 248.846C202.26 247.125 202.573 245.149 201.584 243.663C201.038 242.841 200.163 242.295 199.272 241.869Z" fill="#5E2A3A"/>
<path d="M206.034 224.77C204.823 223.458 203.31 222.151 201.525 222.207C200.538 222.238 199.613 222.693 198.781 223.226C196.635 224.599 194.87 226.562 193.731 228.842C193.145 230.014 192.735 231.458 193.382 232.597C193.875 233.466 194.852 233.92 195.771 234.313C197.052 234.861 198.428 235.403 199.801 235.167C201.074 234.948 202.142 234.088 203.027 233.148C204.121 231.985 207.483 228.052 207.079 226.405C206.923 225.77 206.478 225.251 206.034 224.77Z" fill="#5E2A3A"/>
<path d="M230.529 225.004C229.116 225.339 227.674 226.007 226.947 227.264C226.228 228.506 226.372 230.132 227.098 231.369C227.824 232.607 229.06 233.485 230.392 234.02C231.165 234.33 236.151 229.423 236.503 225.114C234.559 224.593 232.488 224.54 230.529 225.004Z" fill="#5E2A3A"/>
</g>
<path d="M166.132 232.825C173.724 232.825 179.879 221.056 179.879 206.539C179.879 192.022 173.724 180.253 166.132 180.253C158.54 180.253 152.385 192.022 152.385 206.539C152.385 221.056 158.54 232.825 166.132 232.825Z" fill="#753949"/>
<path d="M166.514 230.016C173.406 230.016 178.993 218.734 178.993 204.816C178.993 190.899 173.406 179.616 166.514 179.616C159.622 179.616 154.035 190.899 154.035 204.816C154.035 218.734 159.622 230.016 166.514 230.016Z" fill="#EA7B59"/>
<path opacity="0.6" d="M237.797 213.731L240.088 199.729C240.088 199.729 211.634 207.652 201.947 212.31C200.501 209.754 198.829 207.162 196.929 204.581C184.541 187.75 167.915 178.606 159.809 183.649C151.986 188.517 154.815 205.024 166.099 220.974C177.628 237.27 194.157 247.622 203.078 243.645C203.164 243.607 203.242 243.559 203.327 243.518C216.417 238.083 237.797 213.731 237.797 213.731Z" fill="#843131"/>
<path d="M288.076 278.565H252.993L243.617 274.936C243.617 274.936 228.193 248.624 227.588 245.902C226.983 243.18 230.613 214.146 231.822 209.609C233.032 205.072 248.456 177.55 251.178 175.131C253.9 172.711 278.095 164.546 282.632 164.243C287.169 163.941 310.154 170.292 313.481 172.106C316.808 173.921 321.647 247.414 321.647 247.414L288.076 278.565Z" fill="#9B7C82"/>
<path d="M313.481 172.106C310.154 170.291 287.169 163.94 282.632 164.243C279.738 164.436 268.85 167.827 260.634 170.887C260.738 170.962 260.837 171.03 260.923 171.078C264.1 172.858 295.154 178.429 299.837 178.088C301.803 177.945 307.992 176.79 314.685 175.392C314.27 173.492 313.866 172.315 313.481 172.106Z" fill="#AD9097"/>
<path d="M291.958 212.386C289.236 212.991 260.202 209.362 255.665 208.152C253.338 207.531 244.965 203.171 237.032 198.703C234.342 203.755 232.238 208.046 231.821 209.609C230.611 214.146 226.982 243.18 227.587 245.902C228.192 248.624 243.616 274.936 243.616 274.936L252.992 278.565H288.075L321.646 247.414C321.646 247.414 319.843 220.035 317.682 198.286C310.527 202.444 294.08 211.914 291.958 212.386Z" fill="#896A6F"/>
<path d="M313.663 173.507C312.499 172.872 308.539 178.283 308.539 178.283C308.539 178.283 300.84 207.795 299.343 210.148C297.846 212.5 274.749 230.465 270.686 232.817C266.623 235.169 236.255 243.724 232.619 243.51C231.798 243.462 229.991 242.843 227.653 241.885C227.51 243.933 227.473 245.388 227.587 245.902C228.192 248.624 243.616 274.936 243.616 274.936L252.992 278.565H288.075L321.646 247.414C321.646 247.414 316.99 175.321 313.663 173.507Z" fill="#75545B"/>
<path d="M288.076 278.565C280.515 272.819 266.905 241.365 265.393 236.828C263.881 232.291 272.954 199.023 274.466 195.394C275.978 191.765 288.076 174.223 290.495 173.013C292.914 171.803 308.13 170.876 311.259 171.189C314.388 171.501 326.486 180.574 327.998 182.087C329.51 183.599 342.818 207.794 343.12 211.726C343.422 215.658 344.027 242.575 342.515 246.507C341.003 250.439 328.603 273.122 325.881 273.727C323.159 274.332 312.182 277.8 308.944 278.566C305.164 278.565 288.076 278.565 288.076 278.565Z" fill="#A58B90"/>
<path d="M343.187 241.741L316.633 235.795L314.936 221.538L337.502 198.857C333.565 191.2 328.861 182.949 327.998 182.086C326.486 180.574 314.388 171.501 311.259 171.188C308.13 170.876 292.915 171.803 290.495 173.012C290.439 173.04 290.373 173.086 290.306 173.131L299.66 197.437L294.229 220.18L302.376 240.547L308.944 278.565C312.182 277.799 323.159 274.331 325.881 273.726C328.603 273.121 341.003 250.438 342.515 246.506C342.818 245.719 343.035 244.001 343.187 241.741Z" fill="#AF9198"/>
<path d="M306.393 242.73C304.598 241.205 301.367 232.859 301.008 231.655C300.649 230.451 302.803 221.623 303.162 220.66C303.521 219.697 306.393 215.042 306.967 214.721C307.541 214.4 311.154 214.154 311.896 214.237C312.638 214.32 315.511 216.727 315.87 217.129C316.229 217.53 319.388 223.951 319.46 224.994C319.532 226.037 319.675 233.18 319.316 234.223C318.957 235.266 316.013 241.286 315.367 241.446C314.721 241.607 312.115 242.527 311.346 242.73C310.449 242.73 306.393 242.73 306.393 242.73Z" fill="#896A6F"/>
<path d="M316.491 218.224C316.186 217.638 315.953 217.221 315.871 217.129C315.512 216.728 312.64 214.32 311.897 214.237C311.154 214.154 307.542 214.4 306.968 214.721C306.394 215.042 303.522 219.697 303.163 220.66C303.002 221.091 302.483 223.095 301.99 225.286L316.491 218.224Z" fill="#6D5055"/>
<path opacity="0.6" d="M184.281 278.395H167.478C167.478 278.395 165.691 248.499 175.881 242.975C186.072 237.451 184.281 278.395 184.281 278.395Z" fill="#843131"/>
<path d="M174.585 278.565H261.083L262.058 277.071C262.058 277.071 216.297 237.131 176.173 245.902C170.333 247.178 167.629 268.585 174.585 278.565Z" fill="#FF9566"/>
<path d="M196.498 245.174C223.885 253.086 258.575 278.565 258.575 278.565L259.512 277.071C259.512 277.071 228.987 249.357 196.498 245.174Z" fill="#FF9566"/>
<path opacity="0.6" d="M169.944 171.146C170.507 180.128 179.266 192.93 179.266 192.93L179.537 186.217C183.54 193.614 191.043 200.861 191.043 200.861L190.072 194.928C192.95 200.391 199.807 204.803 199.807 204.803L198.681 200.938C202.662 205.497 209.843 208.309 209.843 208.309L208.168 205.107C210.349 206.187 212.646 207.257 215.073 208.309L216.085 203.248L221.146 208.056L220.64 200.464L223.677 204.007L226.461 194.391L230.004 197.934L229.245 188.064L233.294 193.126L232.282 179.207L235.066 183.256L234.307 172.88L235.607 173.14C235.605 173.139 235.603 173.136 235.603 173.136L235.619 173.142L238.104 173.639L230.006 160.226L232.467 161.281C229.189 157.806 224.842 154.934 219.272 154.535C204.074 153.445 183.886 153.227 172.318 160.202C167.13 163.33 162.676 167.465 159.336 171.076L158.236 176.533L169.944 171.146Z" fill="#843131"/>
<path d="M243.437 147.777C243.437 147.777 239.641 137.148 234.58 132.34C234.58 132.34 237.364 132.087 240.147 134.112C240.147 134.112 235.086 125.002 225.975 120.699L229.265 120.446C229.265 120.446 220.221 110.083 198.391 111.589C183.713 112.601 173.843 127.026 173.843 127.026L175.868 128.038C175.868 128.038 163.721 145.247 161.443 153.345L164.986 151.321L161.545 168.386L173.254 163C173.817 171.982 182.576 184.784 182.576 184.784L182.847 178.071C186.85 185.468 194.353 192.715 194.353 192.715L193.382 186.782C196.26 192.245 203.117 196.657 203.117 196.657L201.991 192.792C205.972 197.351 213.154 200.163 213.154 200.163L211.479 196.962C213.66 198.042 215.957 199.112 218.384 200.163L219.396 195.102L224.457 199.91L223.951 192.318L226.988 195.861L229.772 186.244L233.315 189.787L232.556 179.917L236.605 184.978L235.593 171.059L238.377 175.108L237.618 164.732L241.414 165.491L233.316 152.079L236.859 153.597L232.81 147.017L237.618 146.258L233.316 141.956C233.314 141.956 240.147 143.475 243.437 147.777Z" fill="#753949"/>
<path d="M235.459 183.546L236.604 184.978L235.993 176.58C235.952 178.948 235.773 181.274 235.459 183.546Z" fill="#5E2A3A"/>
<path d="M243.437 147.777C243.437 147.777 239.641 137.148 234.58 132.34C234.58 132.34 237.364 132.087 240.147 134.112C240.147 134.112 235.086 125.002 225.975 120.699L229.265 120.446C229.265 120.446 220.221 110.083 198.391 111.589C183.713 112.601 173.843 127.026 173.843 127.026L175.868 128.038C175.868 128.038 170.661 135.415 166.426 142.782C173.753 133.188 185.652 121.742 197.318 121.742C218.32 121.742 234.138 146.655 235.862 171.453L238.376 175.109L237.617 164.733L241.413 165.492L233.315 152.08L236.858 153.598L232.809 147.018L237.617 146.259L233.315 141.957C233.315 141.957 240.147 143.475 243.437 147.777Z" fill="#5E2A3A"/>
<path d="M234.621 127.501C236.074 129.017 237.387 131.053 238.514 133.159C239.044 133.401 239.595 133.71 240.147 134.111C240.147 134.111 238.394 130.976 235.117 127.517C234.804 127.493 234.621 127.501 234.621 127.501Z" fill="#5E2A3A"/>
<path d="M161.716 153.189L162.263 151.009C161.924 151.846 161.644 152.632 161.443 153.346L161.716 153.189Z" fill="#5E2A3A"/>
<path d="M235.642 153.076L236.857 153.597L233.091 147.477L232.436 147.159L235.642 153.076Z" fill="#5E2A3A"/>
<path d="M229.778 146.14L223.541 154.032L226.341 162.561L220.596 159.982L226.214 174.144L222.777 172.107L226.211 181.533L221.504 179.744L224.05 188.145L219.977 186.363L221.357 194.523L216.526 189.484L215.279 194.493C212.904 193.329 210.659 192.154 208.531 190.973L210.054 194.249C210.054 194.249 203.011 191.105 199.248 186.365L200.192 190.279C200.192 190.279 193.548 185.552 190.928 179.961L191.621 185.933C191.621 185.933 184.464 178.344 180.81 170.768L180.226 177.461C180.226 177.461 172.073 164.264 171.931 155.266L163.503 158.676L161.545 168.387L173.254 163.001C173.817 171.983 182.576 184.785 182.576 184.785L182.847 178.072C186.85 185.469 194.353 192.716 194.353 192.716L193.382 186.783C196.26 192.246 203.117 196.658 203.117 196.658L201.991 192.793C205.972 197.352 213.154 200.164 213.154 200.164L211.479 196.963C213.66 198.043 215.957 199.113 218.384 200.164L219.396 195.103L224.457 199.911L223.951 192.319L226.988 195.862L229.772 186.245L233.315 189.788L232.556 179.919L236.605 184.98L235.593 171.061L238.377 175.11L237.618 164.734L241.414 165.493L229.778 146.14Z" fill="#5E2A3A"/>
<path d="M240.419 140.881C237.126 138.201 232.909 137.048 232.909 137.048L237.006 141.546L232.168 142.08L234.73 146.714L237.618 146.258L233.316 141.956C233.316 141.956 240.149 143.474 243.439 147.777C243.437 147.777 242.29 144.569 240.419 140.881Z" fill="#5E2A3A"/>
<path d="M156.892 201.065C163.02 213.2 185.529 229.151 194.603 231.722C203.676 234.293 204.663 213.543 200.883 207.494C197.103 201.445 179.338 177.802 175.72 176.114C166.646 171.879 149.18 185.791 156.892 201.065Z" fill="#FFB882"/>
<path d="M194.499 226.476C185.426 223.905 163.275 206.326 157.147 194.191C156.315 192.543 155.792 190.914 155.504 189.319C154.574 192.915 154.809 196.938 156.893 201.064C163.021 213.199 185.171 230.779 194.245 233.35C200.739 235.19 203.273 224.25 202.804 215.664C201.951 222.181 199.312 227.84 194.499 226.476Z" fill="#FF9566"/>
<path d="M196.809 232.061C209.073 230.885 230.839 196.384 230.839 196.384L224.105 189.95C224.105 189.95 196.092 200.708 192.581 205.685C189.179 210.507 191.007 232.617 196.809 232.061Z" fill="#FFB882"/>
<path d="M192.438 226.04C192.177 226.06 191.927 226.026 191.682 225.969C192.592 230.459 194.171 233.819 196.4 233.606C208.664 232.43 230.839 196.384 230.839 196.384C230.839 196.384 203.178 225.236 192.438 226.04Z" fill="#FF9566"/>
<path d="M178.721 143.064L182.488 143.851C177.755 148.199 179.366 160.696 179.366 160.696C176.356 154.418 174.84 148.426 178.721 143.064Z" fill="#5E2A3A"/>
<path d="M179.832 140.722L182.272 143.698C175.859 144.115 169.275 154.859 169.275 154.859C170.868 148.081 173.446 142.463 179.832 140.722Z" fill="#5E2A3A"/>
<path d="M184.008 140.415L185.313 144.438C178.582 142.295 167.537 150.652 167.537 150.652C171.884 144.353 176.775 139.637 184.008 140.415Z" fill="#753949"/>
<path d="M181.419 145.709L185.266 145.793C181.409 150.934 185.282 162.925 185.282 162.925C181.172 157.304 178.585 151.691 181.419 145.709Z" fill="#5E2A3A"/>
<path d="M229.841 151.088C231.785 153.588 229.069 158.208 224.743 157.525C219.988 156.775 215.43 150.882 215.43 150.882L229.841 151.088Z" fill="#FF9566"/>
<path d="M229.042 150.789C230.61 152.805 228.419 156.532 224.929 155.982C221.093 155.377 217.416 150.623 217.416 150.623L229.042 150.789Z" fill="#FFB882"/>
<path d="M195.841 147.743C192.136 157.856 201.831 158.072 204.348 157.927C212.03 157.483 219.548 151.35 219.548 151.35L195.841 147.743Z" fill="#FF9566"/>
<path d="M200.243 149.537C197.577 156.815 204.553 156.97 206.365 156.866C211.893 156.546 217.303 152.133 217.303 152.133L200.243 149.537Z" fill="#FFB882"/>
<path d="M212.239 150.252C211.9 151.565 210.943 152.94 208.987 152.641C207.031 152.343 207.936 149.88 207.936 149.88L212.239 150.252Z" fill="#471F2C"/>
<path d="M224.994 150.572C224.655 151.885 223.698 153.26 221.742 152.961C219.786 152.663 220.691 150.199 220.691 150.199L224.994 150.572Z" fill="#471F2C"/>
<path d="M217.236 153.815C226.684 153.559 234.258 161.705 234.258 161.705C234.258 161.705 224.907 160.929 219.219 159.07C213.532 157.211 217.236 153.815 217.236 153.815Z" fill="#5E2A3A"/>
<path d="M217.552 154.747C226.99 154.82 234.306 163.235 234.306 163.235C234.306 163.235 224.996 162.133 219.374 160.075C213.752 158.017 217.552 154.747 217.552 154.747Z" fill="#753949"/>
<path d="M217.668 151.775C220.495 152.16 221.993 153.221 221.456 154.905C220.919 156.588 219.281 157.663 217.256 157.487C215.066 157.297 212.507 154.831 212.507 154.831L217.668 151.775Z" fill="#EA7B59"/>
<path d="M217.123 151.992C219.515 152.451 220.823 153.378 220.452 154.694C220.081 156.01 218.757 156.781 217.048 156.532C215.2 156.263 212.472 154.396 212.472 154.396L217.123 151.992Z" fill="#FFB882"/>
<path d="M178.814 154.663C175.574 154.609 173.84 151.493 174.756 148.609C175.671 145.725 179.436 144.89 181.927 146.078C184.418 147.267 178.814 154.663 178.814 154.663Z" fill="#FF865C"/>
<path d="M178.968 152.914C176.962 152.88 175.889 150.951 176.455 149.165C177.022 147.379 179.353 146.862 180.895 147.598C182.437 148.334 178.968 152.914 178.968 152.914Z" fill="#CE5236"/>
<path d="M179.837 152.176C178.623 152.156 177.974 150.988 178.317 149.908C178.66 148.828 180.07 148.515 181.003 148.96C181.936 149.406 179.837 152.176 179.837 152.176Z" fill="#FF865C"/>
<path d="M212.534 153.946C203.359 152.085 194.183 158.777 194.183 158.777C194.183 158.777 203.488 159.611 209.45 158.758C215.413 157.906 212.534 153.946 212.534 153.946Z" fill="#5E2A3A"/>
<path d="M212.732 154.762C203.495 153.224 194.512 160.224 194.512 160.224C194.512 160.224 203.848 160.732 209.789 159.673C215.73 158.614 212.732 154.762 212.732 154.762Z" fill="#753949"/>
<path d="M197.655 144.384C195.975 145.633 193.776 146.638 191.282 147.204C206.029 152.837 223.874 152.541 232.312 150.07C232.312 150.07 212.711 150.779 197.655 144.384Z" fill="#5E2A3A"/>
<path d="M206.281 156.212C205.046 155.283 203.375 158.162 202.186 160.809L205.26 163.946C205.26 163.946 207.517 157.142 206.281 156.212Z" fill="#EA7B59"/>
<path d="M200.57 160.791L201.807 159.097C201.837 159.178 204.993 167.165 215.922 165.014L215.903 165.437C207.701 167.051 202.084 164.848 200.57 160.791Z" fill="#3D1A25"/>
<path d="M320.283 165.615L322.574 157.468L330.466 157.722L329.957 162.559L320.283 165.615Z" fill="#A58B90"/>
<path d="M310.196 157.678L308.264 149.765L313.084 147.858L314.74 152.325L310.196 157.678Z" fill="#A58B90"/>
<path d="M202.41 122.462L204.192 127.681C214.503 126.79 228.505 134.3 228.505 134.3C223.541 129.845 215.521 124.245 202.41 122.462Z" fill="#753949"/>
<path d="M230.377 141.693L226.685 137.596C217.557 142.472 201.729 141.077 201.729 141.077C208.046 143.22 217.622 145.213 230.377 141.693Z" fill="#5E2A3A"/>
<path d="M231.8 146.806L229.382 144.122C223.403 147.316 213.035 146.402 213.035 146.402C217.173 147.806 223.445 149.111 231.8 146.806Z" fill="#5E2A3A"/>
<path d="M200.911 121.867L202.554 126.574C212.06 122.715 224.969 126.195 224.969 126.195C220.392 123.169 212.998 119.876 200.911 121.867Z" fill="#753949"/>
<path d="M188.554 124.017L193.399 130.315C202.309 120.595 219.773 120.343 219.773 120.343C212.479 117.77 201.677 115.985 188.554 124.017Z" fill="#753949"/>
<path d="M203.859 114.147L210.137 116.36C196.771 119.021 185.363 132.305 185.363 132.305C188.922 124.131 193.143 118.041 203.859 114.147Z" fill="#5E2A3A"/>
<path d="M182.742 139.965L186.866 140.426C182.487 147.136 186.082 163.941 186.082 163.941C181.935 155.857 179.421 147.919 182.742 139.965Z" fill="#753949"/>
<path d="M255.109 278.565H262.337L267.938 265.454C267.938 265.454 257.119 267.097 255.109 278.565Z" fill="#FFB882"/>
<path d="M175.801 278.565H257.881L259.267 275.34C259.267 275.34 217.586 241.353 181.485 249.23C176.232 250.376 169.542 269.602 175.801 278.565Z" fill="#FFB882"/>
<path d="M266.411 238.356C264.899 233.819 273.972 200.551 275.484 196.922C276.996 193.293 289.094 175.751 291.513 174.541C293.933 173.331 309.148 172.404 312.277 172.717C315.406 173.029 327.504 182.102 329.016 183.615C329.057 183.656 329.11 183.721 329.167 183.794C328.61 182.896 328.198 182.288 327.997 182.088C326.485 180.576 314.387 171.503 311.258 171.19C308.129 170.878 292.914 171.805 290.494 173.014C288.075 174.224 275.977 191.765 274.465 195.395C272.953 199.024 263.88 232.293 265.392 236.829C266.629 240.54 275.961 262.257 283.455 273.186C276.16 261.877 267.593 241.9 266.411 238.356Z" fill="#75545B"/>
<path d="M307.744 233.461C305.671 233.461 303.673 233.565 301.775 233.749C302.926 236.684 305.056 241.596 306.392 242.731C306.392 242.731 310.449 242.731 311.346 242.731C312.115 242.528 314.721 241.608 315.367 241.447C315.962 241.299 318.497 236.2 319.178 234.573C315.861 233.872 311.95 233.461 307.744 233.461Z" fill="#9B7C82"/>
<path d="M319.46 224.994C319.388 223.951 316.229 217.53 315.87 217.129C315.726 216.968 315.177 216.485 314.525 215.959C314.81 216.205 315.024 216.402 315.106 216.493C315.465 216.894 318.624 223.315 318.696 224.358C318.768 225.401 318.911 232.544 318.553 233.587C318.194 234.63 315.25 240.65 314.604 240.81C313.958 240.971 311.352 241.891 310.583 242.094C309.805 242.094 306.66 242.094 305.833 242.094C306.029 242.356 306.219 242.583 306.393 242.73C306.393 242.73 310.45 242.73 311.347 242.73C312.116 242.527 314.722 241.607 315.368 241.446C316.014 241.286 318.958 235.266 319.317 234.223C319.676 233.18 319.532 226.037 319.46 224.994Z" fill="#6D5055"/>
<path d="M267.753 188.272L262.492 189.63L253.157 186.745L263.001 185.727L272.675 184.878L267.753 188.272Z" fill="#896A6F"/>
<path d="M273.402 193.709L265.33 197.635L253.968 193.453L263.095 192.18L276.438 189.678L273.402 193.709Z" fill="#896A6F"/>
<path d="M288.212 177.043L280.345 175.375L269.093 173.163L277.658 176.316L286.199 179.383L288.212 177.043Z" fill="#75545B"/>
<path d="M270.633 212.405L266.184 212.076L254.35 207.681L263.749 209.467L272.669 207.492L270.633 212.405Z" fill="#75545B"/>
<path d="M289.452 188.256L297.786 186.781L300.985 194L296.407 195.642L289.452 188.256Z" fill="#D1B8BE"/>
<path d="M268.067 184.332L268.888 178.667L274.002 178.228L274.064 181.526L268.067 184.332Z" fill="#D1B8BE"/>
<path d="M324.423 188.028L330.042 185.816L337.432 188.958L333.689 191.722L324.423 188.028Z" fill="#D1B8BE"/>
<path d="M287.039 208.054L294.828 212.043L294.219 218.84L289.555 217.211L287.039 208.054Z" fill="#D1B8BE"/>
<path d="M305.191 162.4C307.09 164.773 309.223 167.953 309.295 169.332C309.367 170.712 309.505 177.228 308.28 177.927C307.055 178.626 304.503 179.295 303.311 177.84C302.119 176.385 302.863 171.391 302.467 170.405C302.07 169.419 298.831 165.839 298.831 165.839L305.191 162.4Z" fill="#FFB882"/>
<path d="M234.533 186.39C236.128 187.563 235.452 196.511 232.562 197.142C229.672 197.773 220.547 189.358 220.614 188.915C220.681 188.472 231.484 184.147 234.533 186.39Z" fill="#FF9566"/>
<path d="M235.915 185.685C237.126 184.508 246.211 186.953 247.045 189.774C247.879 192.595 239.86 192.962 239.37 192.79C238.881 192.617 233.6 187.934 235.915 185.685Z" fill="#FF9566"/>
<path d="M246.398 159.356C246.398 159.356 224.385 203.163 224.044 205.884C223.704 208.606 227.577 210.933 229.165 208.892C230.753 206.85 248.514 159.885 248.514 159.885L246.398 159.356Z" fill="#B54D2D"/>
<path d="M259.323 179.87C248.904 181.223 232.711 178.758 231.585 178.024C230.458 177.29 237.076 160.697 239.188 159.702C251.157 160.969 259.323 179.87 259.323 179.87Z" fill="#CCBEC7"/>
<path d="M253.383 170.53C249.588 169.984 246.48 170.815 245.728 172.847C244.965 174.909 246.849 177.613 250.176 179.681C253.098 179.758 256.013 179.683 258.546 179.353C258.546 179.353 256.651 174.976 253.383 170.53Z" fill="#BCAAB5"/>
<path d="M248.597 164.427C247.521 164.959 246.859 165.665 246.859 166.443C246.859 168.041 249.633 169.342 253.122 169.426C251.795 167.674 250.276 165.941 248.597 164.427Z" fill="#BCAAB5"/>
<path d="M248.21 180.175C245.198 177 241.759 175.56 239.791 176.912C239.052 177.42 238.61 178.266 238.441 179.329C241.271 179.694 244.699 180.022 248.21 180.175Z" fill="#BCAAB5"/>
<path d="M238.791 161.249C236.77 163.183 231.742 175.921 232.649 176.512C232.733 176.567 232.922 176.634 233.193 176.708C235.381 174.356 237.212 170.809 238.156 166.634C238.575 164.78 238.773 162.966 238.791 161.249Z" fill="#BCAAB5"/>
<path d="M243.369 160.628C242.303 164.399 239.628 181.222 240.231 181.565C240.834 181.908 242.277 181.738 242.701 179.956C243.125 178.174 244.907 161.88 244.992 161.202C245.077 160.523 243.587 159.855 243.369 160.628Z" fill="#914530"/>
<path d="M247.21 162.768C244.419 165.595 233.81 179.181 234.176 179.765C234.542 180.349 235.901 180.872 237.15 179.498C238.399 178.125 247.958 164.589 248.366 164.03C248.774 163.472 247.783 162.189 247.21 162.768Z" fill="#914530"/>
<path d="M239.731 183.18C240.686 183.562 240.686 185.153 238.967 185.153C237.248 185.153 234.945 184.318 234.124 184.099C233.303 183.88 232.857 181.716 234.703 181.971C236.549 182.225 239.731 183.18 239.731 183.18Z" fill="#914530"/>
<path d="M238.331 186.109C239.286 186.491 239.286 188.082 237.567 188.082C235.848 188.082 233.545 187.247 232.723 187.028C231.902 186.809 231.456 184.645 233.302 184.9C235.148 185.154 238.331 186.109 238.331 186.109Z" fill="#914530"/>
<path d="M219.697 189.015C227.589 185.102 233.439 190.295 241.377 187.143C243.37 186.351 247.357 188.666 247.427 190.995C247.496 193.324 244.673 195.822 244.673 195.822C244.673 195.822 247.412 197.67 246.964 200.15C246.516 202.63 243.273 203.078 243.273 203.078C246.064 204.846 246.665 207.802 239.836 209.824C229.918 212.761 224.561 205.241 217.574 209.203C212.358 212.16 205.706 198.305 210.46 195.598C214.759 193.149 218.869 189.426 219.697 189.015Z" fill="#FFB882"/>
</svg>
